<svg xmlns="http://www.w3.org/2000/svg" width="1152" height="320" viewBox="0 0 1152 320" role="img" aria-label="abinnovision/payloadcms-commons: independent building blocks, the ones a project needs composed into one Payload site">
  <rect width="1152" height="320" fill="#0B0C0E"/>
  <g>
    <text x="72" y="126" font-family="ui-monospace, 'SF Mono', SFMono-Regular, Menlo, Consolas, monospace" font-size="16" fill="#6B7079" letter-spacing="0.6">abinnovision/</text>
    <text x="72" y="170" font-family="ui-monospace, 'SF Mono', SFMono-Regular, Menlo, Consolas, monospace" font-size="34" fill="#EDEDEF" letter-spacing="-0.4">payloadcms-commons</text>
    <text x="72" y="202" font-family="system-ui, -apple-system, 'Helvetica Neue', Arial, sans-serif" font-size="16" fill="#6B7079">Building blocks for production Payload sites</text>
  </g>
  <g>
    <rect x="470" y="67" width="130" height="30" rx="4" fill="none" stroke="#D98E3D"/>
    <rect x="482" y="78" width="34" height="8" rx="2" fill="#D98E3D"/>
    <rect x="524" y="78" width="58" height="8" rx="2" fill="#D98E3D" opacity="0.4"/>
  </g>
  <g>
    <rect x="470" y="103" width="130" height="30" rx="4" fill="none" stroke="#212429"/>
    <rect x="482" y="114" width="34" height="8" rx="2" fill="#4C525B"/>
    <rect x="524" y="114" width="46" height="8" rx="2" fill="#33373E"/>
  </g>
  <g>
    <rect x="470" y="139" width="130" height="30" rx="4" fill="none" stroke="#D98E3D"/>
    <rect x="482" y="150" width="34" height="8" rx="2" fill="#D98E3D"/>
    <rect x="524" y="150" width="62" height="8" rx="2" fill="#D98E3D" opacity="0.4"/>
  </g>
  <g>
    <rect x="470" y="175" width="130" height="30" rx="4" fill="none" stroke="#D98E3D"/>
    <rect x="482" y="186" width="34" height="8" rx="2" fill="#D98E3D"/>
    <rect x="524" y="186" width="50" height="8" rx="2" fill="#D98E3D" opacity="0.4"/>
  </g>
  <g>
    <rect x="470" y="211" width="130" height="30" rx="4" fill="none" stroke="#212429"/>
    <rect x="482" y="222" width="34" height="8" rx="2" fill="#4C525B"/>
    <rect x="524" y="222" width="54" height="8" rx="2" fill="#33373E"/>
  </g>
  <g fill="none" stroke="#D98E3D" stroke-width="1.25" opacity="0.55">
    <path d="M600 82C690 82 706 154 790 154"/>
    <path d="M600 154H790"/>
    <path d="M600 190C690 190 706 154 790 154"/>
  </g>
  <path d="M790 154H826" stroke="#D98E3D" stroke-width="2"/>
  <rect x="826" y="64" width="214" height="180" rx="6" fill="none" stroke="#212429"/>
  <g>
    <rect x="842" y="84" width="96" height="10" rx="2" fill="#33373E"/>
    <rect x="978" y="84" width="46" height="10" rx="2" fill="#2A2E34"/>
  </g>
  <g>
    <rect x="842" y="108" width="182" height="13" rx="3" fill="#D98E3D" opacity="0.8"/>
    <rect x="842" y="135" width="182" height="13" rx="3" fill="#2F343B"/>
    <rect x="842" y="162" width="182" height="13" rx="3" fill="#D98E3D" opacity="0.8"/>
    <rect x="842" y="189" width="182" height="13" rx="3" fill="#2F343B"/>
    <rect x="842" y="216" width="182" height="13" rx="3" fill="#D98E3D" opacity="0.8"/>
  </g>
  <g font-family="system-ui, -apple-system, 'Helvetica Neue', Arial, sans-serif" font-size="11" letter-spacing="1.4" text-anchor="middle">
    <text x="535" y="286" fill="#D98E3D">BUILDING BLOCKS</text>
    <text x="933" y="286" fill="#6B7079">YOUR SITE</text>
  </g>
</svg>
